<?xml version="1.0" encoding="UTF-8" standalone="no"?>
<!DOCTYPE svg PUBLIC "-//W3C//DTD SVG 1.1//EN"
 "http://www.w3.org/Graphics/SVG/1.1/DTD/svg11.dtd">
<!-- Generated by graphviz version 2.47.3 (20210619.1520)
 -->
<!-- Title: dependencies Pages: 1 -->
<svg width="204pt" height="174pt"
 viewBox="0.00 0.00 204.00 173.80" xmlns="http://www.w3.org/2000/svg" xmlns:xlink="http://www.w3.org/1999/xlink">
<g id="graph0" class="graph" transform="scale(1 1) rotate(0) translate(4 169.8)">
<title>dependencies</title>
<polygon fill="white" stroke="transparent" points="-4,4 -4,-169.8 200,-169.8 200,4 -4,4"/>
<text text-anchor="middle" x="98" y="-8.2" font-family="sans-serif" font-size="14.00">dependencies</text>
<g id="clust1" class="cluster">
<title>cluster_SasRouteObserverModule</title>
<polygon fill="none" stroke="black" stroke-dasharray="1,5" points="8,-32.8 8,-157.8 188,-157.8 188,-32.8 8,-32.8"/>
</g>
<g id="clust6" class="cluster">
<title>cluster_SasRouteObserverModule_providers</title>
<polygon fill="none" stroke="black" points="24,-40.8 24,-92.8 172,-92.8 172,-40.8 24,-40.8"/>
</g>
<!-- RouterService -->
<g id="node1" class="node">
<title>RouterService</title>
<ellipse fill="#fdb462" stroke="black" cx="98" cy="-66.8" rx="66.05" ry="18"/>
<text text-anchor="middle" x="98" y="-62.6" font-family="Times,serif" font-size="14.00">RouterService</text>
</g>
<!-- SasRouteObserverModule -->
<g id="node2" class="node">
<title>SasRouteObserverModule</title>
<polygon fill="#8dd3c7" stroke="black" points="179.74,-149.8 176.74,-153.8 155.74,-153.8 152.74,-149.8 16.26,-149.8 16.26,-113.8 179.74,-113.8 179.74,-149.8"/>
<text text-anchor="middle" x="98" y="-127.6" font-family="Times,serif" font-size="14.00">SasRouteObserverModule</text>
</g>
<!-- RouterService&#45;&gt;SasRouteObserverModule -->
<g id="edge1" class="edge">
<title>RouterService&#45;&gt;SasRouteObserverModule</title>
<path fill="none" stroke="black" d="M98,-84.91C98,-84.91 98,-103.79 98,-103.79"/>
<polygon fill="black" stroke="black" points="94.5,-103.79 98,-113.79 101.5,-103.79 94.5,-103.79"/>
</g>
</g>
</svg>
