<?xml version="1.0" encoding="UTF-8" standalone="no"?>
<!DOCTYPE svg PUBLIC "-//W3C//DTD SVG 1.1//EN"
 "http://www.w3.org/Graphics/SVG/1.1/DTD/svg11.dtd">
<!-- Generated by graphviz version 2.47.3 (20210619.1520)
 -->
<!-- Title: dependencies Pages: 1 -->
<svg width="448pt" height="174pt"
 viewBox="0.00 0.00 448.00 173.80" xmlns="http://www.w3.org/2000/svg" xmlns:xlink="http://www.w3.org/1999/xlink">
<g id="graph0" class="graph" transform="scale(1 1) rotate(0) translate(4 169.8)">
<title>dependencies</title>
<polygon fill="white" stroke="transparent" points="-4,4 -4,-169.8 444,-169.8 444,4 -4,4"/>
<text text-anchor="middle" x="220" y="-8.2" font-family="sans-serif" font-size="14.00">dependencies</text>
<g id="clust1" class="cluster">
<title>cluster_SasActionsModule</title>
<polygon fill="none" stroke="black" stroke-dasharray="1,5" points="8,-32.8 8,-157.8 244,-157.8 244,-32.8 8,-32.8"/>
</g>
<g id="clust6" class="cluster">
<title>cluster_SasActionsModule_providers</title>
<polygon fill="none" stroke="black" points="16,-40.8 16,-92.8 236,-92.8 236,-40.8 16,-40.8"/>
</g>
<g id="clust13" class="cluster">
<title>cluster_SasRouteObserverModule</title>
<polygon fill="none" stroke="black" stroke-dasharray="1,5" points="252,-32.8 252,-157.8 432,-157.8 432,-32.8 252,-32.8"/>
</g>
<g id="clust18" class="cluster">
<title>cluster_SasRouteObserverModule_providers</title>
<polygon fill="none" stroke="black" points="268,-40.8 268,-92.8 416,-92.8 416,-40.8 268,-40.8"/>
</g>
<!-- ActionsListenerService -->
<g id="node1" class="node">
<title>ActionsListenerService</title>
<ellipse fill="#fdb462" stroke="black" cx="126" cy="-66.8" rx="101.84" ry="18"/>
<text text-anchor="middle" x="126" y="-62.6" font-family="Times,serif" font-size="14.00">ActionsListenerService</text>
</g>
<!-- SasActionsModule -->
<g id="node2" class="node">
<title>SasActionsModule</title>
<polygon fill="#8dd3c7" stroke="black" points="187.04,-149.8 184.04,-153.8 163.04,-153.8 160.04,-149.8 64.96,-149.8 64.96,-113.8 187.04,-113.8 187.04,-149.8"/>
<text text-anchor="middle" x="126" y="-127.6" font-family="Times,serif" font-size="14.00">SasActionsModule</text>
</g>
<!-- ActionsListenerService&#45;&gt;SasActionsModule -->
<g id="edge1" class="edge">
<title>ActionsListenerService&#45;&gt;SasActionsModule</title>
<path fill="none" stroke="black" d="M126,-84.91C126,-84.91 126,-103.79 126,-103.79"/>
<polygon fill="black" stroke="black" points="122.5,-103.79 126,-113.79 129.5,-103.79 122.5,-103.79"/>
</g>
<!-- RouterService -->
<g id="node3" class="node">
<title>RouterService</title>
<ellipse fill="#fdb462" stroke="black" cx="342" cy="-66.8" rx="66.05" ry="18"/>
<text text-anchor="middle" x="342" y="-62.6" font-family="Times,serif" font-size="14.00">RouterService</text>
</g>
<!-- SasRouteObserverModule -->
<g id="node4" class="node">
<title>SasRouteObserverModule</title>
<polygon fill="#8dd3c7" stroke="black" points="423.74,-149.8 420.74,-153.8 399.74,-153.8 396.74,-149.8 260.26,-149.8 260.26,-113.8 423.74,-113.8 423.74,-149.8"/>
<text text-anchor="middle" x="342" y="-127.6" font-family="Times,serif" font-size="14.00">SasRouteObserverModule</text>
</g>
<!-- RouterService&#45;&gt;SasRouteObserverModule -->
<g id="edge2" class="edge">
<title>RouterService&#45;&gt;SasRouteObserverModule</title>
<path fill="none" stroke="black" d="M342,-84.91C342,-84.91 342,-103.79 342,-103.79"/>
<polygon fill="black" stroke="black" points="338.5,-103.79 342,-113.79 345.5,-103.79 338.5,-103.79"/>
</g>
</g>
</svg>
